<svg width="100" height="100" viewBox="0 0 100 100" fill="none" xmlns="http://www.w3.org/2000/svg">
<path d="M59.9609 92.1875H11.854C10.1864 92.1875 9.18039 91.2566 8.72922 90.702C7.95012 89.7439 7.64856 88.4969 7.90188 87.2803C11.9556 67.8086 29.1306 53.5848 48.9644 53.1051C49.3079 53.1184 49.6531 53.125 49.9999 53.125C50.3501 53.125 50.6988 53.1182 51.0456 53.1047C57.1238 53.2473 62.9695 54.6344 68.437 57.2336C70.3857 58.1594 72.7157 57.3311 73.6419 55.3824C74.5681 53.434 73.7396 51.1037 71.7909 50.1775C69.8693 49.2641 67.9085 48.4771 65.9134 47.818C72.3749 42.968 76.5624 35.2451 76.5624 26.5625C76.5624 11.916 64.6466 0 49.9999 0C35.3532 0 23.4374 11.916 23.4374 26.5625C23.4374 35.2547 27.6343 42.9852 34.1079 47.8342C28.1767 49.7869 22.6113 52.8254 17.7402 56.832C8.80813 64.1791 2.59778 74.427 0.25344 85.6881C-0.481325 89.2166 0.398948 92.8408 2.66809 95.6311C4.9261 98.4076 8.27434 100 11.854 100H59.9609C62.1183 100 63.8671 98.2512 63.8671 96.0938C63.8671 93.9363 62.1183 92.1875 59.9609 92.1875ZM31.2499 26.5625C31.2499 16.2236 39.6611 7.8125 49.9999 7.8125C60.3388 7.8125 68.7499 16.2236 68.7499 26.5625C68.7499 36.5818 60.8505 44.7908 50.9527 45.2885C50.6357 45.2828 50.3181 45.2799 49.9999 45.2799C49.6847 45.2799 49.3695 45.283 49.0546 45.2889C39.1532 44.7949 31.2499 36.5844 31.2499 26.5625ZM99.9999 81.4453C99.9999 83.6027 98.2511 85.3516 96.0937 85.3516H85.3515V96.0938C85.3515 98.2512 83.6027 100 81.4452 100C79.2878 100 77.539 98.2512 77.539 96.0938V85.3516H66.7968C64.6394 85.3516 62.8905 83.6027 62.8905 81.4453C62.8905 79.2879 64.6394 77.5391 66.7968 77.5391H77.539V66.7969C77.539 64.6395 79.2878 62.8906 81.4452 62.8906C83.6027 62.8906 85.3515 64.6395 85.3515 66.7969V77.5391H96.0937C98.2511 77.5391 99.9999 79.2879 99.9999 81.4453Z" fill="white"/>
</svg>
